<svg width="708" height="219" viewBox="0 0 708 219" fill="none" xmlns="http://www.w3.org/2000/svg">
<path d="M41.2656 80.4375C52.0469 67.5 65.5938 61.0312 81.9062 61.0312C114.906 61.0312 131.641 80.2031 132.109 118.547V216H91.4688V119.672C91.4688 110.953 89.5938 104.531 85.8438 100.406C82.0938 96.1875 75.8594 94.0781 67.1406 94.0781C55.2344 94.0781 46.6094 98.6719 41.2656 107.859V216H0.625V0H41.2656V80.4375ZM156.438 138.516C156.438 123.422 159.344 109.969 165.156 98.1562C170.969 86.3438 179.312 77.2031 190.188 70.7344C201.156 64.2656 213.859 61.0312 228.297 61.0312C248.828 61.0312 265.562 67.3125 278.5 79.875C291.531 92.4375 298.797 109.5 300.297 131.062L300.578 141.469C300.578 164.812 294.062 183.562 281.031 197.719C268 211.781 250.516 218.812 228.578 218.812C206.641 218.812 189.109 211.781 175.984 197.719C162.953 183.656 156.438 164.531 156.438 140.344V138.516ZM197.078 141.469C197.078 155.906 199.797 166.969 205.234 174.656C210.672 182.25 218.453 186.047 228.578 186.047C238.422 186.047 246.109 182.297 251.641 174.797C257.172 167.203 259.938 155.109 259.938 138.516C259.938 124.359 257.172 113.391 251.641 105.609C246.109 97.8281 238.328 93.9375 228.297 93.9375C218.359 93.9375 210.672 97.8281 205.234 105.609C199.797 113.297 197.078 125.25 197.078 141.469ZM363.719 63.8438L364.984 80.8594C375.766 67.6406 390.344 61.0312 408.719 61.0312C428.312 61.0312 441.766 68.7656 449.078 84.2344C459.766 68.7656 475 61.0312 494.781 61.0312C511.281 61.0312 523.562 65.8594 531.625 75.5156C539.688 85.0781 543.719 99.5156 543.719 118.828V216H502.938V118.969C502.938 110.344 501.25 104.062 497.875 100.125C494.5 96.0938 488.547 94.0781 480.016 94.0781C467.828 94.0781 459.391 99.8906 454.703 111.516L454.844 216H414.203V119.109C414.203 110.297 412.469 103.922 409 99.9844C405.531 96.0469 399.625 94.0781 391.281 94.0781C379.75 94.0781 371.406 98.8594 366.25 108.422V216H325.609V63.8438H363.719ZM645.109 218.812C622.797 218.812 604.609 211.969 590.547 198.281C576.578 184.594 569.594 166.359 569.594 143.578V139.641C569.594 124.359 572.547 110.719 578.453 98.7188C584.359 86.625 592.703 77.3438 603.484 70.875C614.359 64.3125 626.734 61.0312 640.609 61.0312C661.422 61.0312 677.781 67.5938 689.688 80.7188C701.688 93.8438 707.688 112.453 707.688 136.547V153.141H610.797C612.109 163.078 616.047 171.047 622.609 177.047C629.266 183.047 637.656 186.047 647.781 186.047C663.438 186.047 675.672 180.375 684.484 169.031L704.453 191.391C698.359 200.016 690.109 206.766 679.703 211.641C669.297 216.422 657.766 218.812 645.109 218.812ZM640.469 93.9375C632.406 93.9375 625.844 96.6562 620.781 102.094C615.812 107.531 612.625 115.312 611.219 125.438H667.75V122.203C667.562 113.203 665.125 106.266 660.438 101.391C655.75 96.4219 649.094 93.9375 640.469 93.9375Z" fill="black"/>
</svg>
